<?xml version="1.0" standalone="no"?><!DOCTYPE svg PUBLIC "-//W3C//DTD SVG 1.1//EN" "http://www.w3.org/Graphics/SVG/1.1/DTD/svg11.dtd"><svg t="1611543983534" class="icon" viewBox="0 0 1024 1024" version="1.1" xmlns="http://www.w3.org/2000/svg" p-id="24765" xmlns:xlink="http://www.w3.org/1999/xlink" width="64" height="64"><defs><style type="text/css"></style></defs><path d="M249.273043 891.228322L139.76607 781.721349v-86.730825a93.058825 93.058825 0 1 0-46.529412 0v96.362414a23.264706 23.264706 0 0 0 6.816559 16.448147L209.560189 917.308057v83.427237a23.264706 23.264706 0 0 0 46.529412 0v-93.058825a23.264706 23.264706 0 0 0-6.816558-16.448147z" p-id="24766" fill="#000000"></path><path d="M1000.560201 605.235288a93.058825 93.058825 0 1 0-116.323531 89.755236v86.730825l-109.506972 109.506973a23.264706 23.264706 0 0 0-6.816559 16.448147v93.058825a23.264706 23.264706 0 0 0 46.529412 0v-83.427237l109.506972-109.506972a23.264706 23.264706 0 0 0 6.816559-16.448147v-96.362414a93.058825 93.058825 0 0 0 69.794119-89.755236z" p-id="24767" fill="#000000"></path><path d="M388.86128 542.257728L232.824895 386.221343v-86.730825a93.058825 93.058825 0 1 0-46.529412 0v96.362414a23.264706 23.264706 0 0 0 6.816559 16.448147L349.148426 568.337464v432.39783a23.264706 23.264706 0 0 0 46.529413 0v-442.029419a23.264706 23.264706 0 0 0-6.816559-16.448147z" p-id="24768" fill="#000000"></path><path d="M907.501376 209.735282a93.058825 93.058825 0 1 0-116.323531 89.755236v86.730825l-156.036385 156.036385a23.264706 23.264706 0 0 0-6.816559 16.448147v442.029419a23.264706 23.264706 0 0 0 46.529413 0V568.337464l156.036384-156.036385a23.264706 23.264706 0 0 0 6.816559-16.448147v-96.362414a93.058825 93.058825 0 0 0 69.794119-89.755236z" p-id="24769" fill="#000000"></path><path d="M605.060195 93.411751a93.058825 93.058825 0 1 0-116.323531 89.755236v817.568307a23.264706 23.264706 0 0 0 46.529412 0V183.166987a93.058825 93.058825 0 0 0 69.794119-89.755236z" p-id="24770" fill="#000000"></path></svg>