<?xml version="1.0" standalone="no"?><!DOCTYPE svg PUBLIC "-//W3C//DTD SVG 1.1//EN" "http://www.w3.org/Graphics/SVG/1.1/DTD/svg11.dtd"><svg t="1611543714357" class="icon" viewBox="0 0 1024 1024" version="1.1" xmlns="http://www.w3.org/2000/svg" p-id="3840" xmlns:xlink="http://www.w3.org/1999/xlink" width="64" height="64"><defs><style type="text/css"></style></defs><path d="M795.940571 696.56381a113.615238 113.615238 0 0 0-111.177142 90.355809H402.334476c-7.41181-4.87619-11.897905-38.716952-14.628571-61.927619h82.017524A70.704762 70.704762 0 1 0 456.606476 668.038095H380.342857c-10.288762-56.027429-34.133333-113.615238-108.397714-113.615238H142.872381a28.42819 28.42819 0 0 0 0 56.807619h128.877714c28.672 0 41.837714 17.554286 50.322286 56.807619H142.872381a28.379429 28.379429 0 0 0 0 56.758857h187.733333C336.457143 778.24 344.405333 843.580952 403.553524 843.580952h282.331428a12.629333 12.629333 0 0 0 1.950477-0.438857 113.371429 113.371429 0 1 0 108.105142-146.724571z m0 170.374095a56.807619 56.807619 0 1 1 56.807619-56.807619 56.856381 56.856381 0 0 1-56.807619 56.807619zM142.872381 497.810286h341.333333a27.452952 27.452952 0 0 0 3.413334-0.438857 113.615238 113.615238 0 1 0 0-55.442286 27.452952 27.452952 0 0 0-3.364572-0.682667h-341.333333a28.42819 28.42819 0 0 0 0 56.807619z m454.314667-85.187048a56.807619 56.807619 0 1 1-56.807619 56.807619 56.856381 56.856381 0 0 1 56.807619-56.807619zM142.872381 389.36381h128.877714c96.01219 0 107.910095-80.11581 114.980572-127.951239 5.948952-40.374857 9.752381-47.542857 16.822857-47.542857h264.923428a70.753524 70.753524 0 1 0-13.06819-56.807619H403.553524c-58.806857 0-67.34019 57.782857-73.142857 96.012191-8.338286 56.515048-15.993905 79.481905-58.806857 79.481904H142.872381a28.42819 28.42819 0 0 0 0 56.80762z" p-id="3841" fill="#000000"></path></svg>