<?xml version="1.0" standalone="no"?><!DOCTYPE svg PUBLIC "-//W3C//DTD SVG 1.1//EN" "http://www.w3.org/Graphics/SVG/1.1/DTD/svg11.dtd"><svg t="1611733304327" class="icon" viewBox="0 0 1024 1024" version="1.1" xmlns="http://www.w3.org/2000/svg" p-id="5950" xmlns:xlink="http://www.w3.org/1999/xlink" width="64" height="64"><defs><style type="text/css"></style></defs><path d="M546.718476 943.104l36.815238 71.192381H503.417905c-174.031238 0-425.20381-157.647238-425.20381-381.464381 0-144.188952 62.70781-234.886095 198.558476-344.015238 5.851429-4.729905 52.662857-41.642667 65.340953-52.077714C411.794286 179.687619 438.857143 142.043429 438.857143 96.49981V25.990095l65.974857 24.868572c117.272381 44.227048 184.953905 115.712 208.213333 207.043047 6.631619 25.941333 9.508571 51.590095 9.264762 77.872762l9.264762-10.873905 37.741714-44.470857 37.059048 45.007238c1.26781 1.511619 26.038857 31.402667 32.865524 39.740953 12.141714 14.872381 21.601524 26.965333 30.232381 38.814476 53.248 72.94781 75.824762 141.702095 75.824762 249.465905 0 157.45219-144.969143 304.469333-289.840762 343.088762l-23.064381 6.144-19.017143-14.433524c-30.573714-23.210667-62.902857-58.709333-93.817905-101.571048 7.655619 17.456762 16.725333 36.181333 27.160381 56.417524zM403.943619 312.173714c-13.55581 11.068952-60.806095 48.420571-66.121143 52.662857-114.980571 92.40381-162.084571 160.475429-162.084571 267.995429 0 126.19581 128.097524 231.960381 244.345905 269.409524-39.009524-96.841143-42.179048-169.496381 3.705904-239.323429l49.737143-75.776 35.791238 83.236572c39.497143 91.672381 96.060952 178.273524 144.530286 224.304762 98.352762-37.302857 193.926095-141.604571 193.926095-241.225143 0-86.991238-15.945143-135.655619-57.051428-191.975619a747.52 747.52 0 0 0-22.966858-29.647238c-31.939048 35.206095-56.661333 57.831619-90.550857 82.310095L572.952381 589.531429l28.086857-125.610667c1.560381-6.92419 9.752381-37.839238 11.654095-45.446095 12.970667-53.00419 16.091429-96.207238 5.851429-136.533334-11.702857-45.83619-40.862476-84.358095-94.159238-114.883047C506.09981 216.990476 466.651429 260.87619 403.943619 312.173714z" p-id="5951" fill="#000000"></path></svg>