<?xml version="1.0" standalone="no"?><!DOCTYPE svg PUBLIC "-//W3C//DTD SVG 1.1//EN" "http://www.w3.org/Graphics/SVG/1.1/DTD/svg11.dtd"><svg t="1611627118078" class="icon" viewBox="0 0 1102 1024" version="1.1" xmlns="http://www.w3.org/2000/svg" p-id="34170" xmlns:xlink="http://www.w3.org/1999/xlink" width="68.875" height="64"><defs><style type="text/css"></style></defs><path d="M837.420111 0a94.523077 94.523077 0 0 1 78.296615 41.590154l170.929231 252.612923a94.523077 94.523077 0 0 1-5.513846 113.506461l-466.392616 560.836924a94.523077 94.523077 0 0 1-146.825846-1.654154L20.661957 404.007385a94.523077 94.523077 0 0 1-7.483077-106.889847L161.028726 46.473846A94.523077 94.523077 0 0 1 242.55488 0h594.865231zM702.015803 389.592615H392.689034l158.798769 434.491077 150.606769-434.491077z m-410.151385 0H130.072418l299.795693 377.304616-137.924923-377.304616z m681.196308 0h-171.008L679.960418 742.006154l293.179077-352.413539z m-766.739692-233.944615L124.243495 294.990769h133.12l-50.963692-139.342769z m675.288615 4.489846l-46.710154 134.852923h138.003693l-91.293539-134.852923z m-339.731692-50.176L417.186265 294.990769h249.540923L541.956726 109.961846z m262.380308-15.438769H645.617034l104.841846 155.490461 53.878154-155.490461z m-366.040616 0H284.775188l54.035692 147.613538L438.296418 94.523077z" p-id="34171" fill="#000000"></path></svg>