<?xml version="1.0" standalone="no"?><!DOCTYPE svg PUBLIC "-//W3C//DTD SVG 1.1//EN" "http://www.w3.org/Graphics/SVG/1.1/DTD/svg11.dtd"><svg t="1611627565786" class="icon" viewBox="0 0 1024 1024" version="1.1" xmlns="http://www.w3.org/2000/svg" p-id="48562" xmlns:xlink="http://www.w3.org/1999/xlink" width="64" height="64"><defs><style type="text/css"></style></defs><path d="M782.464086 374.634146c-28.097561-46.829268-59.317073-96.780488-96.780488-146.731707-43.707317-62.439024-90.536585-124.878049-140.487805-187.317073L510.85433 0l-34.341464 46.829268c-49.95122 59.317073-93.658537 121.756098-140.487804 187.317073-34.341463 49.95122-68.682927 99.902439-96.780488 146.731708C170.561647 487.02439 136.220183 580.682927 136.220183 643.121951c0 209.170732 168.585366 380.878049 374.634147 380.878049s374.634146-171.707317 374.634146-380.878049c0-62.439024-34.341463-156.097561-103.02439-268.487805zM510.85433 930.341463c-156.097561 0-280.97561-128-280.97561-287.219512 0-34.341463 21.853659-109.268293 87.414634-215.414634 24.97561-43.707317 59.317073-93.658537 93.658537-140.487805l12.487805-18.731707c31.219512-40.585366 59.317073-81.170732 87.414634-118.634146 34.341463 43.707317 68.682927 87.414634 96.780488 131.121951v6.243902c37.463415 46.829268 65.560976 96.780488 90.536585 137.365854 81.170732 140.487805 87.414634 202.926829 87.414634 218.536585 6.243902 159.219512-118.634146 287.219512-274.731707 287.219512z" p-id="48563" fill="#000000"></path><path d="M517.098232 693.073171c-106.146341-56.195122-218.536585-112.390244-218.536585 0s96.780488 202.926829 218.536585 202.926829c118.634146 0 215.414634-90.536585 218.536586-202.926829 0-112.390244-115.512195 56.195122-218.536586 0z" p-id="48564" fill="#000000"></path></svg>