<?xml version="1.0" standalone="no"?><!DOCTYPE svg PUBLIC "-//W3C//DTD SVG 1.1//EN" "http://www.w3.org/Graphics/SVG/1.1/DTD/svg11.dtd"><svg t="1611627352139" class="icon" viewBox="0 0 1024 1024" version="1.1" xmlns="http://www.w3.org/2000/svg" p-id="41922" xmlns:xlink="http://www.w3.org/1999/xlink" width="64" height="64"><defs><style type="text/css"></style></defs><path d="M503.133052 63.569828l0 0.974188-9.721409 0c-236.20056 0-429.011914 192.162578-429.011914 428.363138l0 18.160615 0.017396 0 0 447.585945 456.417077 0 0-0.757247 9.414417 0c236.20056 0 429.250344-192.168718 429.250344-428.369278l0-9.849322 0.051165 0L959.550129 63.569828 503.133052 63.569828zM847.655689 529.532305c0 175.396729-142.011364 318.093708-317.408093 318.093708l-9.414417 0 0-0.850367L176.311565 846.775646l0-344.229972-0.027629 0 0-9.638521c0-175.396729 141.729955-318.093708 317.126684-318.093708l9.721409 0 0 0.633427 344.521614 0 0 344.229972 0.001023 0L847.654666 529.532305z" p-id="41923" fill="#000000"></path><path d="M685.806511 260.826424c-1.595334 0.23536-3.172249 0.568958-4.731768 0.979304-19.391652 5.109368-150.591787 41.334407-274.259364 165.468612l0-61.278645c0-23.766286-19.445888-43.212174-43.212174-43.212174l-1.061169 0c-23.766286 0-43.212174 19.445888-43.212174 43.212174l0 152.24238c0 4.640694 0.750083 9.113565 2.121314 13.31219-26.315342 39.280632-50.695612 84.022649-71.643714 134.949528-0.845251 2.055822-4.02978 9.565866-5.477758 15.907295-0.189312 0.829901-0.309038 1.673106-0.403183 2.520403-2.393513 21.505803-9.489118 63.72844 55.163367 62.701041 15.037485-0.23843 39.054481-36.414351 45.682435-49.270147 15.183817-29.453822 30.429033-56.519248 45.800116-81.425498 6.832615 4.052293 14.786775 6.390547 23.263843 6.390547l213.323527 0c25.230638 0 45.873794-20.643156 45.873794-45.873794 0-25.230638-20.643156-45.873794-45.873794-45.873794L450.28338 531.575848c65.898873-82.279958 135.470391-131.828444 213.506698-164.546613 27.827789-11.667737 75.41869-33.174564 83.911108-60.886719C757.357104 274.635941 751.306294 251.15004 685.806511 260.826424z" p-id="41924" fill="#000000"></path></svg>