<?xml version="1.0" standalone="no"?><!DOCTYPE svg PUBLIC "-//W3C//DTD SVG 1.1//EN" "http://www.w3.org/Graphics/SVG/1.1/DTD/svg11.dtd"><svg t="1611627172444" class="icon" viewBox="0 0 1024 1024" version="1.1" xmlns="http://www.w3.org/2000/svg" p-id="36865" xmlns:xlink="http://www.w3.org/1999/xlink" width="64" height="64"><defs><style type="text/css"></style></defs><path d="M738.133333 283.733333c0-125.866667-102.4-226.133333-226.133333-226.133333C260.266667 57.6 57.6 260.266667 57.6 512S260.266667 966.4 512 966.4c-125.866667 0-226.133333-102.4-226.133333-226.133333C283.733333 614.4 386.133333 512 512 512c125.866667 0 226.133333-102.4 226.133333-228.266667z m-145.066666 0c0 44.8-36.266667 81.066667-81.066667 81.066667-44.8 0-81.066667-36.266667-81.066667-81.066667 0-44.8 36.266667-81.066667 81.066667-81.066666 44.8 0 81.066667 38.4 81.066667 81.066666z" fill="#000000" p-id="36866"></path><path d="M512 819.2c44.8 0 81.066667-36.266667 81.066667-81.066667 0-44.8-36.266667-81.066667-81.066667-81.066666-44.8 0-81.066667 36.266667-81.066667 81.066666 0 44.8 36.266667 81.066667 81.066667 81.066667z" fill="#000000" p-id="36867"></path></svg>