<?xml version="1.0" standalone="no"?><!DOCTYPE svg PUBLIC "-//W3C//DTD SVG 1.1//EN" "http://www.w3.org/Graphics/SVG/1.1/DTD/svg11.dtd"><svg t="1611536952996" class="icon" viewBox="0 0 1024 1024" version="1.1" xmlns="http://www.w3.org/2000/svg" p-id="17292" xmlns:xlink="http://www.w3.org/1999/xlink" width="64" height="64"><defs><style type="text/css"></style></defs><path d="M89.56928 203.999573c0-17.850027-14.470827-32.320853-32.320853-32.320853s-32.320853 14.470827-32.320854 32.320853 14.470827 32.320853 32.320854 32.320854 32.320853-14.470827 32.320853-32.320854z m-32.320853 28.281174c-15.619413 0-28.279467-12.66176-28.279467-28.279467s12.660053-28.279467 28.279467-28.279467c15.617707 0 28.279467 12.66176 28.279466 28.279467s-12.660053 28.279467-28.279466 28.279467z" fill="" p-id="17293"></path><path d="M57.248427 180.724053c-12.854613 0-23.27552 10.420907-23.27552 23.27552s10.420907 23.27552 23.27552 23.27552 23.27552-10.420907 23.27552-23.27552-10.420907-23.27552-23.27552-23.27552z m0 35.51232a12.2368 12.2368 0 1 1 0-24.471893 12.2368 12.2368 0 0 1 0 24.471893z" fill="" p-id="17294"></path><path d="M57.248427 203.999573m-9.888427 0a9.888427 9.888427 0 1 0 19.776853 0 9.888427 9.888427 0 1 0-19.776853 0Z" fill="" p-id="17295"></path><path d="M375.8848 207.720107h51.24608a7.67488 7.67488 0 0 0 15.10912-1.92 7.678293 7.678293 0 1 0-15.10912-1.92h-49.657173L185.115307 11.52H0V15.36h183.524693l192.360107 192.360107zM263.524693 315.52h75.190614l23.360853-23.360853h50.57024l34.399573 34.399573h32.72704a7.67488 7.67488 0 0 0 15.10912-1.92 7.678293 7.678293 0 1 0-15.10912-1.92h-31.136426l-34.399574-34.399573h-53.74976l-23.360853 23.360853h-72.009387L41.755307 88.32H0V92.16h40.164693l223.36 223.36zM276.964693 391.68h29.44l23.68 23.68h40.93952a7.67488 7.67488 0 0 0 15.10912-1.92 7.678293 7.678293 0 1 0-15.10912-1.92H331.6736l-23.68-23.68h-29.44L167.195307 276.48H0v3.84h165.604693l111.36 111.36zM153.35936 421.12a7.68 7.68 0 0 0 0-15.36 7.678293 7.678293 0 0 0-7.42912 5.76H0v3.84h145.931947a7.67488 7.67488 0 0 0 7.427413 5.76z" fill="" p-id="17296"></path><path d="M383.17568 234.960213h83.01056l27.067733-27.067733-0.16384-0.16384c1.0752 0.964267 2.479787 1.568427 4.032854 1.568427a6.075733 6.075733 0 0 0 6.0672-6.068907c0-3.345067-2.722133-6.0672-6.0672-6.0672s-6.068907 2.720427-6.068907 6.0672c0 1.554773 0.60416 2.95936 1.568427 4.032853l-0.274774-0.274773-26.692266 26.692267h-81.95072L176.904533 26.88H0v1.28h176.375467l206.800213 206.800213z m113.947307-35.688106a3.961173 3.961173 0 0 1 3.95776 3.956053c0 2.182827-1.774933 3.959467-3.95776 3.959467s-3.959467-1.77664-3.959467-3.959467a3.961173 3.961173 0 0 1 3.959467-3.956053z" fill="" p-id="17297"></path><path d="M383.735467 189.44h19.730773l30.08-30.08h31.418027a6.06208 6.06208 0 0 0 5.96992 5.097813 6.074027 6.074027 0 0 0 6.0672-6.068906 6.075733 6.075733 0 0 0-6.0672-6.068907c-3.239253 0-5.87264 2.56-6.038187 5.76h-31.880533l-30.08 30.08h-18.669227L196.104533 0H0v1.28h195.575467L383.735467 189.44z m87.19872-35.01056a3.96288 3.96288 0 0 1 3.95776 3.95776c0 2.182827-1.774933 3.959467-3.95776 3.959467a3.96288 3.96288 0 0 1-3.95776-3.959467 3.961173 3.961173 0 0 1 3.95776-3.95776zM273.015467 300.16h58.770773l23.360853-23.360853h110.51008l20.0192 20.0192a6.009173 6.009173 0 0 0-1.4336 3.87072 6.075733 6.075733 0 0 0 6.068907 6.068906c3.346773 0 6.068907-2.72384 6.068907-6.068906s-2.722133-6.068907-6.068907-6.068907c-1.406293 0-2.686293 0.500053-3.715413 1.307307l-20.40832-20.40832h-111.56992l-23.360854 23.360853H273.544533L47.624533 72.96H0v1.28h47.095467L273.015467 300.16z m217.2928-3.428693c2.182827 0 3.959467 1.77664 3.959466 3.95776s-1.77664 3.95776-3.959466 3.95776c-2.18112 0-3.95776-1.77664-3.95776-3.95776s1.77664-3.95776 3.95776-3.95776z" fill="" p-id="17298"></path><path d="M257.015467 330.24h90.130773l21.12-21.12h33.389227l57.5232 57.5232a6.017707 6.017707 0 0 0-1.472854 3.9168 6.075733 6.075733 0 0 0 6.068907 6.068907c3.346773 0 6.0672-2.722133 6.0672-6.068907s-2.720427-6.068907-6.0672-6.068907c-1.384107 0-2.64704 0.484693-3.669333 1.268054l-57.919147-57.919147H367.735467l-21.12 21.12h-89.069227L33.544533 104.96H0v1.28h33.015467l224 224z m206.757546 36.360533c2.182827 0 3.95776 1.77664 3.95776 3.959467s-1.77664 3.95776-3.95776 3.95776-3.95776-1.77664-3.95776-3.95776 1.774933-3.959467 3.95776-3.959467z" fill="" p-id="17299"></path><path d="M283.255467 379.52h64.329386c0.324267 3.042987 2.875733 5.428907 6.002347 5.428907 3.346773 0 6.068907-2.722133 6.068907-6.068907s-2.722133-6.068907-6.068907-6.068907c-3.12832 0-5.67808 2.38592-6.002347 5.428907H283.784533L170.504533 264.96H0v1.28h169.975467l113.28 113.28z m70.331733-4.599467c2.182827 0 3.959467 1.77664 3.959467 3.959467s-1.77664 3.95776-3.959467 3.95776-3.95776-1.77664-3.95776-3.95776 1.774933-3.959467 3.95776-3.959467zM140.43136 373.11488a6.01088 6.01088 0 0 0 3.84512 1.41312 6.075733 6.075733 0 0 0 6.068907-6.068907 6.075733 6.075733 0 0 0-6.068907-6.068906 6.075733 6.075733 0 0 0-6.068907 6.068906c0 1.41824 0.508587 2.706773 1.32608 3.741014L113.655467 398.08H0v1.28h114.184533l26.246827-26.24512z m3.84512-8.615253a3.96288 3.96288 0 0 1 3.95776 3.95776c0 2.182827-1.77664 3.959467-3.95776 3.959466s-3.95776-1.77664-3.95776-3.959466a3.96288 3.96288 0 0 1 3.95776-3.95776zM123.328853 244.160853h13.760854v13.760854h-13.760854zM103.00928 244.160853h13.760853v13.760854h-13.760853zM82.689707 244.160853h13.760853v13.760854h-13.760853zM62.368427 244.160853h13.760853v13.760854h-13.760853zM42.048853 244.160853h13.760854v13.760854h-13.760854z" fill="" p-id="17300"></path><path d="M241.1264 438.406827v17.47968h17.47968v-17.47968h-1.96608V394.615467l-96.054613-96.054614H63.735467l-27.752107 27.752107a6.00576 6.00576 0 0 0-3.662507-1.262933 6.075733 6.075733 0 0 0-6.068906 6.068906c0 3.346773 2.722133 6.068907 6.068906 6.068907s6.068907-2.722133 6.068907-6.068907c0-1.501867-0.56832-2.86208-1.477973-3.923626l27.354453-27.354454h95.79008l95.305387 95.305387v43.262293h-11.12064v-34.833066l-86.254934-86.254934H108.535467L66.235733 359.620267H48.382293c-0.175787-3.18976-2.802347-5.736107-6.034773-5.736107a6.07232 6.07232 0 0 0-6.0672 6.0672 6.074027 6.074027 0 0 0 6.0672 6.068907c3.0208 0 5.512533-2.225493 5.973333-5.12H66.7648l42.299733-42.299734h48.390827l85.505707 85.505707v34.302293h-1.834667zM32.320853 335.074987c-2.182827 0-3.959467-1.77664-3.959466-3.95776s1.77664-3.959467 3.959466-3.959467 3.959467 1.77664 3.959467 3.959467-1.778347 3.95776-3.959467 3.95776z m10.026667 28.83584c-2.182827 0-3.95776-1.77664-3.95776-3.959467s1.774933-3.95776 3.95776-3.95776 3.95776 1.774933 3.95776 3.95776-1.77664 3.959467-3.95776 3.959467zM24.92928 820.000427c0 17.850027 14.470827 32.320853 32.320853 32.320853s32.320853-14.470827 32.320854-32.320853-14.470827-32.320853-32.320854-32.320854-32.320853 14.470827-32.320853 32.320854z m32.319147-28.281174c15.617707 0 28.279467 12.66176 28.279466 28.279467s-12.66176 28.279467-28.279466 28.279467c-15.619413 0-28.279467-12.66176-28.279467-28.279467s12.66176-28.279467 28.279467-28.279467z" fill="" p-id="17301"></path><path d="M57.248427 843.27424c12.854613 0 23.27552-10.4192 23.27552-23.27552s-10.420907-23.277227-23.27552-23.277227-23.27552 10.420907-23.27552 23.277227 10.420907 23.27552 23.27552 23.27552z m0-35.508907a12.235093 12.235093 0 1 1 0 24.470187 12.235093 12.235093 0 0 1 0-24.470187z" fill="" p-id="17302"></path><path d="M57.248427 820.000427m-9.888427 0a9.888427 9.888427 0 1 0 19.776853 0 9.888427 9.888427 0 1 0-19.776853 0Z" fill="" p-id="17303"></path><path d="M377.475413 820.119893h49.657174a7.676587 7.676587 0 0 0 15.10912-1.92 7.68 7.68 0 0 0-7.68-7.68 7.68 7.68 0 0 0-7.42912 5.76h-51.24608L183.524693 1008.64H0v3.84h185.115307l192.360106-192.360107zM265.115307 712.32h72.009386l23.360854 23.360853h53.74976l34.399573-34.399573h31.136427a7.676587 7.676587 0 0 0 15.10912-1.92 7.68 7.68 0 0 0-7.68-7.68 7.68 7.68 0 0 0-7.42912 5.76H447.044267l-34.399574 34.399573h-50.57024l-23.360853-23.360853h-75.190613L40.164693 931.84H0v3.84h41.755307l223.36-223.36zM278.555307 636.16h29.44l23.68-23.68h39.350613a7.676587 7.676587 0 0 0 15.10912-1.92 7.68 7.68 0 0 0-7.68-7.68 7.68 7.68 0 0 0-7.42912 5.76H330.0864L306.404693 632.32h-29.44l-111.36 111.36H0V747.52h167.195307l111.36-111.36zM153.35936 618.24a7.68 7.68 0 0 0 0-15.36 7.68 7.68 0 0 0-7.42912 5.76H0v3.84h145.931947a7.676587 7.676587 0 0 0 7.427413 5.76z" fill="" p-id="17304"></path><path d="M497.122987 814.701227c-1.554773 0-2.957653 0.60416-4.032854 1.568426l0.16384-0.162133-27.067733-27.067733h-83.01056L176.375467 995.84H0v1.28h176.904533l206.800214-206.800213h81.95072l26.692266 26.693973 0.274774-0.274773a6.019413 6.019413 0 0 0-1.568427 4.032853c0 3.345067 2.72384 6.0672 6.068907 6.0672s6.0672-2.722133 6.0672-6.0672a6.075733 6.075733 0 0 0-6.0672-6.070613z m0 10.026666a3.96288 3.96288 0 0 1-3.959467-3.956053c0-2.182827 1.77664-3.95776 3.959467-3.95776s3.95776 1.774933 3.95776 3.95776a3.961173 3.961173 0 0 1-3.95776 3.956053z" fill="" p-id="17305"></path><path d="M470.934187 859.543893a6.060373 6.060373 0 0 0-5.96992 5.096107h-31.419734L403.464533 834.56h-19.730773l-188.16 188.16H0v1.28h196.104533l188.16-188.16h18.669227l30.08 30.08h31.880533c0.165547 3.2 2.797227 5.76 6.038187 5.76a6.075733 6.075733 0 0 0 6.0672-6.068907 6.070613 6.070613 0 0 0-6.065493-6.0672z m0 10.026667a3.96288 3.96288 0 0 1-3.95776-3.95776 3.96288 3.96288 0 0 1 3.95776-3.95776 3.961173 3.961173 0 0 1 3.95776 3.95776 3.96288 3.96288 0 0 1-3.95776 3.95776zM273.544533 725.12h57.709227l23.360853 23.360853h111.56992l20.40832-20.40832a6.004053 6.004053 0 0 0 3.715414 1.307307c3.346773 0 6.068907-2.722133 6.068906-6.068907s-2.722133-6.068907-6.068906-6.068906a6.075733 6.075733 0 0 0-6.068907 6.068906c0 1.477973 0.55296 2.816 1.4336 3.87072l-20.0192 20.0192h-110.51008l-23.360853-23.360853H273.015467L47.095467 949.76H0v1.28h47.624533L273.544533 725.12z m216.763734-5.768533c2.182827 0 3.959467 1.774933 3.959466 3.95776s-1.77664 3.95776-3.959466 3.95776c-2.18112 0-3.95776-1.774933-3.95776-3.95776s1.77664-3.95776 3.95776-3.95776z" fill="" p-id="17306"></path><path d="M257.544533 695.04h89.069227l21.12 21.12h34.450773l57.919147-57.919147a6.009173 6.009173 0 0 0 3.669333 1.266347c3.346773 0 6.0672-2.722133 6.0672-6.068907s-2.720427-6.068907-6.0672-6.068906a6.075733 6.075733 0 0 0-6.068906 6.068906c0 1.50016 0.56832 2.85696 1.472853 3.9168l-57.5232 57.5232H368.264533L347.144533 693.76h-90.130773L33.015467 917.76H0v1.28h33.544533l224-224z m206.22848-45.55776a3.961173 3.961173 0 0 1 3.95776 3.95776c0 2.18112-1.77664 3.95776-3.95776 3.95776s-3.95776-1.77664-3.95776-3.95776a3.961173 3.961173 0 0 1 3.95776-3.95776z" fill="" p-id="17307"></path><path d="M283.784533 645.76h63.80032c0.324267 3.04128 2.875733 5.428907 6.002347 5.428907 3.346773 0 6.068907-2.722133 6.068907-6.068907s-2.722133-6.068907-6.068907-6.068907c-3.12832 0-5.67808 2.38592-6.002347 5.428907H283.255467L169.975467 757.76H0v1.28h170.504533l113.28-113.28z m69.802667-4.59776c2.182827 0 3.959467 1.774933 3.959467 3.95776 0 2.18112-1.77664 3.95776-3.959467 3.95776s-3.95776-1.77664-3.95776-3.95776a3.961173 3.961173 0 0 1 3.95776-3.95776zM139.53536 651.799893a6.009173 6.009173 0 0 0-1.32608 3.741014 6.075733 6.075733 0 0 0 6.068907 6.068906 6.07744 6.07744 0 0 0 6.068906-6.068906 6.075733 6.075733 0 0 0-6.068906-6.068907c-1.466027 0-2.79552 0.54272-3.84512 1.41312L114.184533 624.64H0v1.28h113.655467l25.879893 25.879893z m4.74112-0.218453a3.96288 3.96288 0 0 1 3.95776 3.959467c0 2.18112-1.77664 3.95776-3.95776 3.95776s-3.95776-1.77664-3.95776-3.95776c0-2.182827 1.774933-3.959467 3.95776-3.959467zM123.328853 766.08h13.760854v13.760853h-13.760854zM103.00928 766.08h13.760853v13.760853h-13.760853zM82.689707 766.08h13.760853v13.760853h-13.760853zM62.368427 766.08h13.760853v13.760853h-13.760853zM42.048853 766.08h13.760854v13.760853h-13.760854z" fill="" p-id="17308"></path><path d="M32.320853 686.813867a6.075733 6.075733 0 0 0-6.068906 6.068906 6.075733 6.075733 0 0 0 6.068906 6.070614 6.007467 6.007467 0 0 0 3.662507-1.262934l27.752107 27.752107h96.84992l96.054613-96.054613v-43.79136h1.96608v-17.47968h-17.47968v17.47968h1.83296v34.302293l-85.504 85.500587H109.064533L66.7648 663.099733H48.319147c-0.4608-2.8928-2.950827-5.12-5.973334-5.12a6.075733 6.075733 0 0 0-6.0672 6.068907 6.074027 6.074027 0 0 0 6.0672 6.068907c3.232427 0 5.858987-2.546347 6.034774-5.736107H66.235733l42.299734 42.299733H157.986133l86.254934-86.254933v-34.83136h11.12064v43.262293l-95.305387 95.305387H64.264533l-27.354453-27.352747a6.019413 6.019413 0 0 0 1.477973-3.925333 6.075733 6.075733 0 0 0-6.0672-6.070613z m0 10.028373a3.964587 3.964587 0 0 1-3.959466-3.959467c0-2.18112 1.77664-3.95776 3.959466-3.95776s3.959467 1.77664 3.959467 3.95776a3.966293 3.966293 0 0 1-3.959467 3.959467z m10.026667-28.83584a3.961173 3.961173 0 0 1-3.95776-3.95776 3.96288 3.96288 0 0 1 3.95776-3.95776 3.96288 3.96288 0 0 1 3.95776 3.95776 3.96288 3.96288 0 0 1-3.95776 3.95776z" fill="" p-id="17309"></path><path d="M283.385173 578.198187h19.674454c0.324267 3.04128 2.87744 5.4272 6.004053 5.4272a6.075733 6.075733 0 0 0 6.068907-6.0672 6.075733 6.075733 0 0 0-6.068907-6.070614c-3.126613 0-5.679787 2.38592-6.004053 5.430614h-19.14368l-48.730454-48.73216H0v1.28h234.656427l48.728746 48.73216z m25.678507-4.599467a3.96288 3.96288 0 0 1 3.95776 3.959467c0 2.18112-1.77664 3.956053-3.95776 3.956053s-3.95776-1.774933-3.95776-3.956053c0-2.182827 1.774933-3.959467 3.95776-3.959467z" fill="" p-id="17310"></path><path d="M252.962133 535.27552h63.16032c0.324267 3.042987 2.87744 5.428907 6.004054 5.428907 3.346773 0 6.068907-2.722133 6.068906-6.068907s-2.722133-6.068907-6.068906-6.068907c-3.126613 0-5.679787 2.38592-6.004054 5.428907H253.4912l-14.72512-14.726827H0v1.28h238.235307l14.726826 14.726827z m69.164374-4.599467a3.96288 3.96288 0 0 1 3.95776 3.95776 3.961173 3.961173 0 0 1-3.95776 3.95776 3.961173 3.961173 0 0 1-3.95776-3.95776 3.96288 3.96288 0 0 1 3.95776-3.95776zM283.915947 447.081813h19.14368c0.324267 3.04128 2.87744 5.428907 6.004053 5.428907a6.075733 6.075733 0 0 0 6.068907-6.068907 6.074027 6.074027 0 0 0-6.068907-6.0672c-3.126613 0-5.679787 2.384213-6.004053 5.4272h-19.674454l-48.730453 48.730454H0v1.28h235.185493l48.730454-48.730454z m25.147733-4.596053c2.182827 0 3.95776 1.774933 3.95776 3.95776s-1.77664 3.95776-3.95776 3.95776-3.95776-1.77664-3.95776-3.95776 1.774933-3.95776 3.95776-3.95776z" fill="" p-id="17311"></path><path d="M253.4912 490.00448h62.629547c0.324267 3.04128 2.87744 5.428907 6.004053 5.428907a6.075733 6.075733 0 0 0 6.068907-6.068907 6.075733 6.075733 0 0 0-6.068907-6.068907c-3.126613 0-5.679787 2.38592-6.004053 5.428907H252.962133l-14.72512 14.72512H0v1.28h238.76608l14.72512-14.72512z m68.635307-4.599467c2.182827 0 3.95776 1.77664 3.95776 3.959467s-1.774933 3.95776-3.95776 3.95776-3.95776-1.77664-3.95776-3.95776 1.774933-3.959467 3.95776-3.959467zM283.946667 519.985493a7.6288 7.6288 0 0 0 0-15.254186 7.620267 7.620267 0 0 0-7.3728 5.707093H0v3.84h276.573867a7.621973 7.621973 0 0 0 7.3728 5.707093z" fill="" p-id="17312"></path></svg>